<?xml version="1.0" standalone="no"?><!DOCTYPE svg PUBLIC "-//W3C//DTD SVG 1.1//EN" "http://www.w3.org/Graphics/SVG/1.1/DTD/svg11.dtd"><svg t="1662357495931" class="icon" viewBox="0 0 1024 1024" version="1.1" xmlns="http://www.w3.org/2000/svg" p-id="3241" xmlns:xlink="http://www.w3.org/1999/xlink" width="200" height="200"><path d="M814.4 211.2a403.2 403.2 0 0 0-190.4 3.2 398.4 398.4 0 0 0-177.6 102.4l-6.4 6.4h-1.6l-8 8a9.6 9.6 0 0 1-11.2 3.2 134.4 134.4 0 0 0-75.2-6.4 132.8 132.8 0 0 0-65.6 35.2h-1.6a131.2 131.2 0 0 0-36.8 73.6 129.6 129.6 0 0 0 1.6 48 16 16 0 0 0 24 11.2l17.6-9.6a166.4 166.4 0 0 1 51.2-11.2h4.8l4.8 3.2a9.6 9.6 0 0 1 1.6 8 470.4 470.4 0 0 0-11.2 54.4c-1.6 16-3.2 30.4-3.2 44.8a16 16 0 0 0 4.8 11.2l97.6 107.2a14.4 14.4 0 0 0 11.2 4.8l46.4-3.2 56-11.2h3.2l6.4 3.2a9.6 9.6 0 0 1 3.2 6.4 153.6 153.6 0 0 1-11.2 52.8l-9.6 17.6a16 16 0 0 0 9.6 24l27.2 1.6h22.4a134.4 134.4 0 0 0 72-36.8h1.6a134.4 134.4 0 0 0 30.4-142.4 9.6 9.6 0 0 1 1.6-12.8l16-16a392 392 0 0 0 102.4-177.6 396.8 396.8 0 0 0 3.2-192 16 16 0 0 0-11.2-11.2z m-22.4 195.2a361.6 361.6 0 0 1-96 164.8l-14.4 12.8a41.6 41.6 0 0 0-11.2 44.8 102.4 102.4 0 0 1-22.4 108.8h-1.6a104 104 0 0 1-54.4 28.8h-14.4a185.6 185.6 0 0 0 14.4-64 41.6 41.6 0 0 0-40-43.2h-14.4l-51.2 9.6-35.2 3.2-89.6-89.6c0-11.2 1.6-24 3.2-35.2a438.4 438.4 0 0 1 11.2-51.2 41.6 41.6 0 0 0-4.8-32 40 40 0 0 0-24-16h-14.4a198.4 198.4 0 0 0-62.4 14.4 97.6 97.6 0 0 1 1.6-16 100.8 100.8 0 0 1 27.2-54.4h1.6a100.8 100.8 0 0 1 51.2-27.2 102.4 102.4 0 0 1 57.6 4.8 41.6 41.6 0 0 0 46.4-11.2l6.4-6.4 8-6.4a366.4 366.4 0 0 1 163.2-94.4 371.2 371.2 0 0 1 164.8-11.2 364.8 364.8 0 0 1-6.4 166.4zM352 672a16 16 0 0 0-22.4 0l-84.8 84.8a16 16 0 1 0 22.4 22.4l84.8-84.8a16 16 0 0 0 0-22.4zM256 699.2a16 16 0 0 0 11.2-4.8l43.2-43.2a16 16 0 0 0-22.4-22.4L244.8 672a16 16 0 0 0 11.2 27.2zM372.8 713.6l-43.2 43.2a16 16 0 1 0 22.4 22.4l43.2-43.2a16 16 0 0 0-22.4-22.4z" fill="#13227a" p-id="3242"></path><path d="M640 304a96 96 0 1 0 96 96 96 96 0 0 0-96-96z m0 160a64 64 0 1 1 64-64 64 64 0 0 1-64 64z" fill="#13227a" p-id="3243"></path></svg>